<?xml version="1.0" standalone="no"?>
<!DOCTYPE svg PUBLIC "-//W3C//DTD SVG 20010904//EN"
 "http://www.w3.org/TR/2001/REC-SVG-20010904/DTD/svg10.dtd">
<svg version="1.0" xmlns="http://www.w3.org/2000/svg"
 width="1103.000000pt" height="295.000000pt" viewBox="0 0 1103.000000 295.000000"
 preserveAspectRatio="xMidYMid meet">

<g transform="translate(0.000000,295.000000) scale(0.100000,-0.100000)"
fill="#000000" stroke="none">
<path d="M885 2560 c-4 -6 -5 -13 -3 -15 2 -2 46 -7 98 -10 416 -28 757 -201
978 -494 58 -77 140 -225 162 -293 8 -27 17 -38 31 -38 15 0 19 7 19 39 0 97
-71 378 -92 365 -8 -5 -9 -2 -5 10 8 20 -23 87 -36 79 -6 -4 -8 0 -5 8 7 17
-26 86 -38 81 -5 -2 -10 2 -13 9 -2 7 1 9 8 5 6 -4 3 7 -9 26 -11 18 -23 33
-27 33 -14 0 -33 16 -33 27 0 6 7 5 17 -3 27 -22 -45 70 -101 129 l-50 52
-232 0 c-221 0 -232 -1 -237 -19 -3 -15 -11 -18 -27 -14 -12 3 -24 11 -26 17
-6 16 -369 22 -379 6z m533 -45 c3 -14 -1 -16 -20 -10 -30 9 -42 21 -34 34 10
15 50 -3 54 -24z m392 20 c7 -9 10 -18 7 -22 -8 -7 -37 15 -37 28 0 14 16 11
30 -6z m-300 -45 c22 -14 0 -30 -27 -19 -13 4 -23 13 -23 19 0 13 30 13 50 0z
m370 -30 c6 -11 7 -20 2 -20 -10 0 -32 21 -32 32 0 16 19 8 30 -12z m-286 -16
c15 -6 23 -34 10 -34 -13 0 -44 21 -44 30 0 11 11 13 34 4z m96 -69 c10 -12
10 -15 -3 -15 -8 0 -20 7 -27 15 -10 12 -10 15 3 15 8 0 20 -7 27 -15z m80
-60 c7 -9 10 -18 7 -22 -8 -7 -37 15 -37 28 0 14 16 11 30 -6z m75 -76 c11
-17 -1 -21 -15 -4 -8 9 -8 15 -2 15 6 0 14 -5 17 -11z m70 -80 c11 -17 -1 -21
-15 -4 -8 9 -8 15 -2 15 6 0 14 -5 17 -11z m59 -85 c3 -8 2 -12 -4 -9 -6 3
-10 10 -10 16 0 14 7 11 14 -7z"/>
<path d="M786 2458 c-7 -13 -57 -99 -111 -193 -54 -93 -106 -184 -117 -202
l-19 -31 75 42 c93 53 212 101 336 134 86 23 112 26 285 26 173 0 198 -3 286
-26 53 -15 129 -41 169 -58 75 -33 102 -31 82 7 -25 46 -309 222 -333 207 -8
-5 -9 -3 -4 6 6 10 4 12 -9 7 -9 -4 -15 -3 -11 2 6 11 -49 26 -80 22 -15 -1
-16 0 -7 7 17 12 -58 32 -91 25 -16 -3 -18 -2 -9 5 10 7 4 11 -23 16 -25 5
-40 3 -45 -4 -6 -9 -13 -9 -26 -1 -15 8 -16 11 -4 12 30 3 -66 18 -118 18 -33
1 -51 -3 -47 -9 4 -6 -5 -10 -19 -10 -14 0 -26 5 -26 10 0 6 -27 10 -60 10
-51 0 -62 -3 -74 -22z m84 2 c0 -5 -11 -10 -25 -10 -14 0 -25 5 -25 10 0 6 11
10 25 10 14 0 25 -4 25 -10z m190 1 c0 -5 -9 -7 -20 -4 -11 3 -20 7 -20 9 0 2
9 4 20 4 11 0 20 -4 20 -9z m30 -181 c0 -5 -12 -10 -26 -10 -14 0 -23 4 -19
10 3 6 15 10 26 10 10 0 19 -4 19 -10z m105 0 c-3 -5 -12 -10 -20 -10 -8 0
-17 5 -20 10 -4 6 5 10 20 10 15 0 24 -4 20 -10z m-205 -9 c0 -11 -39 -25 -47
-18 -3 3 -2 10 2 16 8 13 45 15 45 2z m303 2 c-7 -2 -19 -2 -25 0 -7 3 -2 5
12 5 14 0 19 -2 13 -5z m102 -13 c3 -6 -1 -7 -9 -4 -18 7 -21 14 -7 14 6 0 13
-4 16 -10z m-512 -15 c1 -5 -10 -11 -25 -13 -16 -2 -28 1 -28 7 0 20 49 26 53
6z m-98 -25 c9 -14 -37 -31 -50 -19 -6 7 -5 13 5 19 20 13 37 12 45 0z m-95
-40 c0 -10 -32 -30 -49 -30 -15 0 -14 27 2 33 21 9 47 7 47 -3z"/>
<path d="M2090 2256 c0 -2 13 -32 29 -67 97 -214 133 -478 96 -704 -15 -97
-53 -222 -85 -285 -24 -47 -25 -56 -5 -64 20 -7 53 29 130 144 67 100 117 198
109 212 -3 4 -1 8 4 8 14 0 32 57 25 77 -4 10 -2 14 4 10 5 -3 15 10 21 30 7
22 8 39 2 43 -5 3 -5 11 0 20 6 8 10 11 11 5 1 -14 17 36 18 58 1 10 -3 15 -9
12 -5 -3 -10 1 -10 9 0 19 20 32 21 14 3 -25 18 78 18 125 1 30 -3 46 -9 42
-6 -4 -10 5 -10 20 0 15 4 24 10 20 19 -12 7 182 -16 258 -6 18 -6 18 -19 0
-13 -17 -14 -17 -20 0 -6 15 -22 17 -116 17 -102 0 -109 -1 -109 -20 0 -11 -4
-20 -10 -20 -5 0 -14 9 -20 20 -6 12 -21 20 -35 20 -14 0 -25 -2 -25 -4z m358
-94 c4 -25 -13 -30 -22 -6 -9 25 -7 36 7 32 6 -3 13 -14 15 -26z m-234 2 c10
-25 7 -34 -9 -34 -8 0 -15 4 -15 9 0 5 -3 16 -6 25 -4 10 -1 16 9 16 8 0 18
-7 21 -16z m246 -100 c0 -14 -4 -23 -10 -19 -5 3 -10 15 -10 26 0 10 5 19 10
19 6 0 10 -12 10 -26z m-215 -5 c8 -23 1 -34 -14 -24 -13 8 -15 45 -2 45 5 0
13 -9 16 -21z m20 -127 c-6 -16 -7 -16 -17 1 -5 10 -7 26 -3 35 6 16 7 16 17
-1 5 -10 7 -26 3 -35z m191 -79 c-11 -11 -19 6 -11 24 8 17 8 17 12 0 3 -10 2
-21 -1 -24z m-176 -14 c0 -10 -4 -19 -10 -19 -5 0 -10 12 -10 26 0 14 4 23 10
19 6 -3 10 -15 10 -26z m0 -99 c0 -11 -4 -20 -10 -20 -5 0 -10 9 -10 20 0 11
5 20 10 20 6 0 10 -9 10 -20z m-13 -122 c-3 -7 -5 -2 -5 12 0 14 2 19 5 13 2
-7 2 -19 0 -25z m-14 -93 c-3 -9 -8 -14 -10 -11 -3 3 -2 9 2 15 9 16 15 13 8
-4z m-26 -107 c-3 -8 -6 -5 -6 6 -1 11 2 17 5 13 3 -3 4 -12 1 -19z"/>
<path d="M1028 2165 c-114 -23 -239 -65 -232 -77 5 -7 2 -9 -9 -5 -18 7 -105
-27 -90 -35 4 -3 2 -3 -5 -1 -14 3 -157 -79 -203 -116 -13 -11 -24 -27 -24
-37 0 -9 -7 -20 -15 -22 -13 -5 -13 -3 -1 11 7 10 9 17 4 17 -16 0 -186 -181
-226 -240 -40 -60 -45 -72 -22 -64 10 4 15 0 15 -13 0 -10 33 -51 72 -90 61
-61 77 -71 97 -66 22 5 23 4 18 -19 -5 -18 -1 -30 11 -41 17 -16 20 -12 55 74
91 222 235 409 421 546 60 44 247 143 271 143 18 0 47 29 40 41 -8 13 -97 10
-177 -6z m-403 -165 c-3 -5 -12 -10 -18 -10 -7 0 -6 4 3 10 19 12 23 12 15 0z
m-85 -55 c-7 -8 -18 -15 -24 -15 -6 0 -2 7 8 15 25 19 32 19 16 0z m220 -30
c-7 -9 -15 -13 -19 -10 -3 3 1 10 9 15 21 14 24 12 10 -5z m-80 -70 c-7 -9
-15 -13 -17 -11 -7 7 7 26 19 26 6 0 6 -6 -2 -15z m-286 -30 c-4 -8 -13 -15
-21 -15 -13 0 -13 3 -3 15 7 8 16 15 21 15 5 0 6 -7 3 -15z m216 -50 c-7 -8
-17 -15 -23 -15 -5 0 -2 9 8 20 21 23 35 19 15 -5z m-286 -29 c-6 -16 -24 -23
-24 -8 0 10 22 33 27 28 2 -2 1 -11 -3 -20z m223 -56 c-6 -11 -15 -20 -19 -20
-12 0 -9 25 4 38 17 17 29 4 15 -18z m-277 -20 c-9 -17 -30 -28 -30 -16 0 16
15 36 26 36 12 0 12 -4 4 -20z m230 -46 c0 -13 -21 -44 -30 -44 -14 0 -12 24
2 38 13 13 28 16 28 6z m-50 -97 c0 -19 -27 -53 -35 -45 -12 12 4 58 20 58 8
0 15 -6 15 -13z"/>
<path d="M4112 2030 c-222 -60 -378 -227 -417 -447 -18 -101 -18 -137 0 -231
42 -212 190 -387 383 -454 56 -19 87 -23 187 -23 80 1 142 7 185 18 73 19 190
75 233 111 l29 23 -34 51 c-18 29 -35 52 -38 52 -3 0 -30 -19 -60 -41 -76 -58
-143 -87 -232 -100 -201 -32 -384 65 -477 252 -101 201 -69 423 83 575 107
106 238 149 383 125 72 -13 192 -63 248 -105 17 -12 35 -25 41 -29 7 -4 26 16
47 48 l36 54 -57 35 c-32 19 -101 49 -153 67 -125 42 -276 50 -387 19z"/>
<path d="M7034 2022 c-6 -4 -40 -108 -77 -232 -62 -211 -251 -834 -263 -863
-6 -17 105 -54 115 -39 3 6 58 195 121 421 63 226 118 407 122 403 7 -7 188
-430 290 -677 32 -77 60 -131 69 -133 10 -2 28 31 63 115 227 560 281 684 288
667 4 -11 55 -197 114 -414 59 -217 108 -396 109 -397 1 -3 126 37 133 42 1 1
-12 46 -28 101 -48 154 -165 568 -225 793 -50 186 -69 233 -86 213 -3 -4 -81
-194 -173 -422 -92 -228 -171 -418 -175 -422 -4 -5 -21 25 -38 65 -18 39 -76
171 -131 292 -54 121 -122 279 -152 350 -60 145 -61 147 -76 137z"/>
<path d="M10603 1829 c-239 -41 -393 -225 -393 -469 0 -226 141 -420 345 -475
130 -35 324 -5 435 69 32 21 40 32 40 57 0 18 -9 47 -21 65 l-21 34 -41 -35
c-134 -115 -328 -127 -459 -31 -98 73 -151 185 -152 321 -1 81 2 97 31 157 97
205 319 267 529 147 29 -16 57 -36 64 -44 18 -22 26 -19 50 20 31 51 24 85
-25 112 -101 58 -276 91 -382 72z"/>
<path d="M5130 1712 c0 -65 -3 -275 -7 -465 l-6 -347 67 0 67 0 -5 148 c-13
328 -17 522 -12 522 2 0 80 -84 172 -187 345 -386 456 -503 473 -503 24 0 28
69 37 558 l7 372 -64 0 -64 0 3 -346 3 -346 -317 356 c-199 223 -324 356 -336
356 -16 0 -18 -10 -18 -118z"/>
<path d="M9320 1814 c-217 -58 -350 -230 -350 -454 0 -206 124 -387 308 -451
116 -40 285 -32 424 21 101 38 97 26 91 253 l-6 197 -65 0 -65 0 4 -172 4
-172 -50 -19 c-30 -12 -87 -21 -140 -24 -121 -7 -187 17 -266 96 -79 79 -103
144 -103 276 0 88 3 107 27 160 36 77 87 130 161 166 74 35 143 44 225 29 67
-12 167 -57 190 -84 20 -24 26 -20 62 35 32 50 32 52 13 66 -100 77 -324 114
-464 77z"/>
<path d="M4830 1416 c0 -216 -3 -421 -6 -455 l-7 -61 67 0 66 0 0 455 0 455
-60 0 -60 0 0 -394z"/>
<path d="M6054 1355 l1 -455 223 -2 c122 -1 230 -2 240 -2 14 -1 17 10 20 65
l3 66 -50 -8 c-27 -4 -109 -11 -180 -15 l-131 -7 0 168 0 168 134 -7 133 -6 7
37 c3 21 6 48 6 61 l0 22 -138 -6 -139 -7 -6 39 c-4 21 -7 86 -7 143 l0 104
138 -7 c75 -3 147 -9 160 -12 19 -6 22 -3 22 24 0 16 -3 44 -6 61 l-6 31 -213
0 -212 0 1 -455z"/>
<path d="M8544 1773 c-8 -21 -28 -69 -44 -108 -32 -79 -232 -544 -279 -648
-17 -38 -31 -72 -31 -77 0 -11 101 -53 108 -45 4 3 36 84 73 178 l66 172 145
3 145 3 83 -185 84 -184 55 24 c30 14 57 27 59 29 3 2 -3 16 -12 29 -26 40
-225 464 -312 663 -69 159 -82 183 -101 183 -17 0 -27 -10 -39 -37z m121 -393
c6 -19 3 -20 -84 -20 -52 0 -91 4 -91 10 0 8 18 55 72 190 10 23 13 19 53 -67
24 -51 46 -101 50 -113z"/>
<path d="M9945 1355 l-1 -455 63 0 63 0 0 455 0 455 -62 0 -63 0 0 -455z"/>
<path d="M697 1718 c-68 -92 -159 -249 -152 -265 2 -7 1 -13 -4 -13 -14 0 -41
-78 -34 -96 4 -11 2 -15 -4 -11 -6 4 -14 -4 -17 -17 -3 -13 -9 -32 -13 -42 -5
-13 -3 -15 7 -9 10 6 12 4 7 -9 -4 -10 -7 -20 -7 -22 0 -3 -4 -3 -9 0 -5 3
-11 -9 -15 -26 -4 -20 -2 -34 5 -39 7 -4 9 -14 6 -24 -4 -9 -11 -13 -17 -10
-14 9 -13 -48 1 -62 7 -7 8 -19 4 -30 -7 -16 -9 -15 -16 7 -4 14 -7 -33 -6
-110 l2 -134 205 -119 c113 -65 213 -122 222 -128 11 -6 -2 28 -37 93 -99 188
-155 402 -155 593 1 159 34 329 91 453 52 116 17 126 -64 20z m-37 -323 c0 -8
-4 -15 -10 -15 -5 0 -7 7 -4 15 4 8 8 15 10 15 2 0 4 -7 4 -15z m-23 -117 c-3
-7 -5 -2 -5 12 0 14 2 19 5 13 2 -7 2 -19 0 -25z m3 -95 c0 -20 -3 -24 -11
-16 -7 7 -9 19 -6 27 10 24 17 19 17 -11z m3 -102 c5 -22 -1 -33 -14 -25 -12
7 -12 44 0 44 5 0 11 -9 14 -19z m15 -109 c4 -25 -13 -30 -22 -6 -9 25 -7 36
7 32 6 -3 13 -14 15 -26z m-207 -35 c-8 -8 -11 -3 -11 19 1 25 2 27 11 11 8
-14 8 -22 0 -30z m231 -71 c4 -27 -18 -31 -25 -5 -7 26 1 45 13 32 5 -4 10
-17 12 -27z m-222 -11 c0 -14 -4 -25 -10 -25 -5 0 -10 11 -10 25 0 14 5 25 10
25 6 0 10 -11 10 -25z m260 -102 c0 -7 -6 -13 -14 -13 -15 0 -29 38 -19 53 7
12 33 -20 33 -40z m34 -69 c10 -26 7 -44 -8 -44 -14 0 -26 21 -26 46 0 19 26
18 34 -2z"/>
<path d="M2402 1206 c-12 -6 -20 -17 -17 -24 3 -8 5 -20 5 -29 0 -9 6 -13 15
-10 8 4 17 2 20 -3 10 -16 25 -11 25 8 0 10 5 23 12 30 9 9 9 12 -1 12 -8 0
-19 6 -25 13 -8 10 -17 11 -34 3z"/>
<path d="M723 1195 c-13 -36 58 -365 83 -384 5 -3 9 -10 9 -16 1 -24 27 -84
37 -82 6 1 13 -4 16 -12 3 -9 0 -11 -8 -6 -7 4 -3 -10 10 -33 13 -23 27 -40
33 -39 5 1 12 -4 15 -12 3 -9 0 -11 -8 -6 -9 6 -10 3 -2 -12 19 -35 105 -147
150 -195 l45 -48 232 0 c220 0 233 1 238 19 3 14 11 17 31 14 14 -3 26 -11 26
-17 0 -15 375 -22 384 -7 10 16 -3 19 -142 30 -433 37 -795 248 -1001 584 -25
40 -59 108 -77 152 -33 79 -58 103 -71 70z m208 -352 c13 -16 12 -17 -3 -4
-10 7 -18 15 -18 17 0 8 8 3 21 -13z m63 -79 c5 -14 4 -15 -9 -4 -17 14 -19
20 -6 20 5 0 12 -7 15 -16z m76 -79 c7 -8 8 -15 2 -15 -5 0 -15 7 -22 15 -7 8
-8 15 -2 15 5 0 15 -7 22 -15z m90 -85 c0 -14 -14 -12 -28 2 -19 19 -14 30 8
18 11 -6 20 -15 20 -20z m-186 -79 c-6 -6 -24 19 -24 34 1 6 7 1 15 -9 8 -11
12 -22 9 -25z m256 29 c8 -5 11 -12 8 -16 -10 -9 -38 3 -38 16 0 12 10 13 30
0z m100 -70 c0 -6 -6 -10 -14 -10 -16 0 -38 24 -30 33 9 8 44 -11 44 -23z
m-300 -15 c20 -24 6 -28 -15 -5 -10 11 -13 20 -8 20 6 0 16 -7 23 -15z m381
-15 c24 -14 25 -30 0 -30 -21 0 -45 23 -34 33 8 9 11 9 34 -3z m104 -43 c22
-17 12 -37 -15 -30 -24 6 -34 19 -25 33 8 13 18 13 40 -3z m-415 -12 c7 -9 10
-18 7 -22 -8 -7 -37 15 -37 28 0 14 16 11 30 -6z"/>
<path d="M2970 1100 c-7 -13 -21 -20 -40 -20 -30 0 -42 -22 -19 -36 7 -4 9
-21 6 -41 -6 -35 -6 -35 26 -29 20 3 39 0 51 -9 29 -22 36 -19 36 16 0 20 8
37 23 49 l22 19 -32 11 c-20 7 -33 20 -37 36 -8 29 -22 31 -36 4z"/>
<path d="M2181 789 c-78 -36 -235 -85 -316 -98 -224 -38 -464 -12 -643 69 -76
35 -102 38 -102 12 0 -39 321 -245 351 -226 7 4 9 3 6 -3 -8 -12 59 -37 74
-27 8 5 9 3 4 -6 -6 -10 -4 -12 8 -7 10 3 17 3 17 -2 0 -4 17 -13 39 -19 44
-14 65 -15 36 -2 -16 7 -17 9 -3 9 9 1 21 -5 25 -13 4 -7 26 -16 48 -20 29 -5
36 -4 25 3 -12 9 -11 11 8 11 13 0 21 -4 18 -9 -7 -10 17 -21 45 -21 11 0 17
5 14 10 -4 6 5 10 20 10 21 0 26 -4 21 -16 -6 -15 5 -16 121 -11 133 6 253 25
253 39 0 4 -7 8 -15 8 -8 0 -15 5 -15 10 0 6 7 10 15 10 12 0 15 19 15 114 0
109 -1 114 -20 109 -14 -4 -20 0 -20 12 0 9 9 19 20 22 14 4 20 14 20 34 0 16
-1 29 -2 28 -2 0 -32 -14 -67 -30z m-11 -79 c0 -6 -10 -15 -22 -19 -28 -11
-50 5 -28 19 20 13 50 13 50 0z m-107 -35 c1 -6 -10 -11 -25 -13 -31 -4 -39
14 -10 21 23 6 33 4 35 -8z m-536 -21 c-3 -3 -12 -4 -19 -1 -8 3 -5 6 6 6 11
1 17 -2 13 -5z m433 -4 c0 -5 -11 -10 -25 -10 -14 0 -25 5 -25 10 0 6 11 10
25 10 14 0 25 -4 25 -10z m-325 -10 c3 -5 -1 -10 -9 -10 -8 0 -18 5 -21 10 -3
6 1 10 9 10 8 0 18 -4 21 -10z m215 0 c0 -5 -9 -10 -20 -10 -11 0 -20 5 -20
10 0 6 9 10 20 10 11 0 20 -4 20 -10z m-105 -10 c-3 -5 -12 -10 -20 -10 -8 0
-17 5 -20 10 -4 6 5 10 20 10 15 0 24 -4 20 -10z m435 -160 c0 -5 -11 -10 -25
-10 -14 0 -25 5 -25 10 0 6 11 10 25 10 14 0 25 -4 25 -10z m-111 -21 c-18
-11 -39 -11 -39 0 0 11 31 20 44 13 4 -2 2 -8 -5 -13z m-89 1 c0 -5 -11 -10
-25 -10 -14 0 -25 5 -25 10 0 6 11 10 25 10 14 0 25 -4 25 -10z"/>
<path d="M2642 356 c-12 -6 -20 -17 -17 -24 3 -8 5 -20 5 -29 0 -8 6 -13 13
-10 6 2 20 0 30 -5 13 -7 17 -5 17 11 0 11 5 21 12 23 8 3 4 12 -10 26 -12 12
-23 21 -24 21 -2 -1 -13 -6 -26 -13z"/>
</g>
</svg>
